<?xml version="1.0" encoding="UTF-8"?>
<svg xmlns="http://www.w3.org/2000/svg" width="96" height="24">
    <g stroke="#8E929C">
        <path d="M94.46 9.667h-7.937L84 1.66l-2.523 8.007H73.54l6.768 4.926-3.076 8.007L84 17.673l6.768 4.927-3.076-8.007 6.768-4.926zm-24 0h-7.937L60 1.66l-2.523 8.007H49.54l6.768 4.926-3.076 8.007L60 17.673l6.768 4.927-3.076-8.007 6.768-4.926z" fill="#FFD23F" vector-effect="non-scaling-stroke"/>
        <path d="M38.42 9.327l.11.35h7.934l-6.521 4.742-.31.225.138.358 2.922 7.599-6.397-4.653-.294-.214-.294.214-6.397 4.653 2.923-7.599.137-.358-.31-.225-6.521-4.742h7.934l.11-.35 2.418-7.665 2.418 7.665zm-24.002 0l.11.35h7.934l-6.521 4.742-.31.225.138.358 2.922 7.599-6.397-4.653-.294-.214-.294.214-6.397 4.653 2.923-7.599.137-.358-.31-.225-6.521-4.742h7.934l.11-.35L12 1.662l2.418 7.665z" fill="none" vector-effect="non-scaling-stroke" stroke-opacity="100"/>
        <path d="M42.5 1v7M39 4.5h7M88 7l6-6m0 6l-6-6" fill="none" vector-effect="non-scaling-stroke" stroke-opacity="100" stroke-linecap="square" stroke-miterlimit="3"/>
    </g>
</svg>
