<svg width="16" height="16" viewBox="0 0 16 16" fill="none" xmlns="http://www.w3.org/2000/svg" focusable="false">
  <g id="Icons/Hamburger">
    <path id="Vector" fill-rule="evenodd" clip-rule="evenodd" d="M15 9H1C0.43984 9 0 8.56016 0 8C0 7.43984 0.43984 7 1 7H15C15.5602 7 16 7.43984 16 8C16 8.56016 15.5602 9 15 9ZM15 4H1C0.43984 4 0 3.56016 0 3C0 2.43984 0.43984 2 1 2H15C15.5602 2 16 2.43984 16 3C16 3.56016 15.5602 4 15 4ZM1 12H15C15.5602 12 16 12.4398 16 13C16 13.5602 15.5602 14 15 14H1C0.43984 14 0 13.5602 0 13C0 12.4398 0.43984 12 1 12Z" fill="#0048DC"/>
  </g>
</svg>
